<mxfile host="app.diagrams.net" agent="Mozilla/5.0 (Windows NT 10.0; Win64; x64) AppleWebKit/537.36 (KHTML, like Gecko) Chrome/129.0.0.0 Safari/537.36" version="24.7.17">
  <diagram name="Page-1" id="c_F4wneWrlYXOUAQgw0x">
    <mxGraphModel dx="989" dy="514" grid="1" gridSize="10" guides="1" tooltips="1" connect="1" arrows="1" fold="1" page="1" pageScale="1" pageWidth="850" pageHeight="1100" math="0" shadow="0">
      <root>
        <mxCell id="0" />
        <mxCell id="1" parent="0" />
        <mxCell id="CwwUcBFTwXQGYd2oY7Go-2" value="" style="edgeStyle=orthogonalEdgeStyle;html=1;verticalAlign=bottom;endArrow=open;endSize=8;strokeColor=#ff0000;rounded=0;" edge="1" source="CwwUcBFTwXQGYd2oY7Go-1" parent="1" target="CwwUcBFTwXQGYd2oY7Go-3">
          <mxGeometry relative="1" as="geometry">
            <mxPoint x="190" y="170" as="targetPoint" />
            <mxPoint x="186.99" y="175" as="sourcePoint" />
            <Array as="points">
              <mxPoint x="155" y="230" />
              <mxPoint x="155" y="230" />
            </Array>
          </mxGeometry>
        </mxCell>
        <mxCell id="CwwUcBFTwXQGYd2oY7Go-14" style="edgeStyle=orthogonalEdgeStyle;rounded=0;orthogonalLoop=1;jettySize=auto;html=1;entryX=0.5;entryY=0;entryDx=0;entryDy=0;" edge="1" parent="1" source="CwwUcBFTwXQGYd2oY7Go-3" target="CwwUcBFTwXQGYd2oY7Go-13">
          <mxGeometry relative="1" as="geometry" />
        </mxCell>
        <mxCell id="CwwUcBFTwXQGYd2oY7Go-15" value="User searches a news story" style="edgeLabel;html=1;align=center;verticalAlign=middle;resizable=0;points=[];" vertex="1" connectable="0" parent="CwwUcBFTwXQGYd2oY7Go-14">
          <mxGeometry x="-0.0312" y="-4" relative="1" as="geometry">
            <mxPoint x="-71" y="13" as="offset" />
          </mxGeometry>
        </mxCell>
        <mxCell id="CwwUcBFTwXQGYd2oY7Go-19" style="edgeStyle=orthogonalEdgeStyle;rounded=0;orthogonalLoop=1;jettySize=auto;html=1;" edge="1" parent="1" source="CwwUcBFTwXQGYd2oY7Go-3" target="CwwUcBFTwXQGYd2oY7Go-16">
          <mxGeometry relative="1" as="geometry" />
        </mxCell>
        <mxCell id="CwwUcBFTwXQGYd2oY7Go-20" value="User accesses&lt;div&gt;&lt;div&gt;previous&amp;nbsp;&lt;/div&gt;&lt;div&gt;search&lt;/div&gt;&lt;/div&gt;" style="edgeLabel;html=1;align=center;verticalAlign=middle;resizable=0;points=[];" vertex="1" connectable="0" parent="CwwUcBFTwXQGYd2oY7Go-19">
          <mxGeometry x="-0.125" y="1" relative="1" as="geometry">
            <mxPoint x="5" y="-22" as="offset" />
          </mxGeometry>
        </mxCell>
        <mxCell id="CwwUcBFTwXQGYd2oY7Go-3" value="Idle/display State" style="swimlane;startSize=20;horizontal=1;containerType=tree;" vertex="1" parent="1">
          <mxGeometry x="130" y="240" width="130" height="66" as="geometry" />
        </mxCell>
        <mxCell id="CwwUcBFTwXQGYd2oY7Go-17" style="edgeStyle=orthogonalEdgeStyle;rounded=0;orthogonalLoop=1;jettySize=auto;html=1;" edge="1" parent="1" source="CwwUcBFTwXQGYd2oY7Go-13" target="CwwUcBFTwXQGYd2oY7Go-16">
          <mxGeometry relative="1" as="geometry" />
        </mxCell>
        <mxCell id="CwwUcBFTwXQGYd2oY7Go-18" value="Users search is stored in the database" style="edgeLabel;html=1;align=center;verticalAlign=middle;resizable=0;points=[];" vertex="1" connectable="0" parent="CwwUcBFTwXQGYd2oY7Go-17">
          <mxGeometry x="-0.1405" y="4" relative="1" as="geometry">
            <mxPoint y="11" as="offset" />
          </mxGeometry>
        </mxCell>
        <mxCell id="CwwUcBFTwXQGYd2oY7Go-22" style="edgeStyle=orthogonalEdgeStyle;rounded=0;orthogonalLoop=1;jettySize=auto;html=1;exitX=0.75;exitY=0;exitDx=0;exitDy=0;entryX=0.75;entryY=1;entryDx=0;entryDy=0;" edge="1" parent="1" source="CwwUcBFTwXQGYd2oY7Go-13" target="CwwUcBFTwXQGYd2oY7Go-3">
          <mxGeometry relative="1" as="geometry" />
        </mxCell>
        <mxCell id="CwwUcBFTwXQGYd2oY7Go-13" value="search State" style="swimlane;startSize=20;horizontal=1;containerType=tree;" vertex="1" parent="1">
          <mxGeometry x="130" y="390" width="130" height="66" as="geometry" />
        </mxCell>
        <mxCell id="CwwUcBFTwXQGYd2oY7Go-21" style="edgeStyle=orthogonalEdgeStyle;rounded=0;orthogonalLoop=1;jettySize=auto;html=1;exitX=0.25;exitY=1;exitDx=0;exitDy=0;entryX=0.75;entryY=1;entryDx=0;entryDy=0;" edge="1" parent="1" source="CwwUcBFTwXQGYd2oY7Go-16" target="CwwUcBFTwXQGYd2oY7Go-3">
          <mxGeometry relative="1" as="geometry" />
        </mxCell>
        <mxCell id="CwwUcBFTwXQGYd2oY7Go-23" value="search results displayed" style="edgeLabel;html=1;align=center;verticalAlign=middle;resizable=0;points=[];" vertex="1" connectable="0" parent="CwwUcBFTwXQGYd2oY7Go-21">
          <mxGeometry x="0.7895" y="1" relative="1" as="geometry">
            <mxPoint x="64" y="-14" as="offset" />
          </mxGeometry>
        </mxCell>
        <mxCell id="CwwUcBFTwXQGYd2oY7Go-16" value="Database search state" style="swimlane;startSize=20;horizontal=1;containerType=tree;" vertex="1" parent="1">
          <mxGeometry x="420" y="240" width="150" height="66" as="geometry">
            <mxRectangle x="360" y="260" width="160" height="30" as="alternateBounds" />
          </mxGeometry>
        </mxCell>
        <mxCell id="CwwUcBFTwXQGYd2oY7Go-1" value="" style="ellipse;html=1;shape=startState;fillColor=#000000;strokeColor=#ff0000;" vertex="1" parent="1">
          <mxGeometry x="140" y="180" width="30" height="30" as="geometry" />
        </mxCell>
        <mxCell id="CwwUcBFTwXQGYd2oY7Go-25" value="" style="ellipse;html=1;shape=endState;fillColor=#000000;strokeColor=#ff0000;" vertex="1" parent="1">
          <mxGeometry x="200" y="180" width="30" height="30" as="geometry" />
        </mxCell>
        <mxCell id="CwwUcBFTwXQGYd2oY7Go-26" value="" style="edgeStyle=orthogonalEdgeStyle;html=1;verticalAlign=bottom;endArrow=open;endSize=8;strokeColor=#ff0000;rounded=0;" edge="1" parent="1" source="CwwUcBFTwXQGYd2oY7Go-3" target="CwwUcBFTwXQGYd2oY7Go-25">
          <mxGeometry relative="1" as="geometry">
            <mxPoint x="165" y="250" as="targetPoint" />
            <mxPoint x="165" y="220" as="sourcePoint" />
            <Array as="points">
              <mxPoint x="215" y="230" />
              <mxPoint x="215" y="230" />
            </Array>
          </mxGeometry>
        </mxCell>
      </root>
    </mxGraphModel>
  </diagram>
</mxfile>
